HIERARCHY
ROOT Hips
{
 OFFSET 0.000000 0.000000 0.000000
 CHANNELS 6 Xposition Yposition Zposition Yrotation Xrotation Zrotation
 JOINT Chest
 {
  OFFSET 0.000000 9.585900 0.002600
  CHANNELS 3 Yrotation Xrotation Zrotation
  JOINT Chest2
  {
   OFFSET 0.000000 9.601200 -0.005300
   CHANNELS 3 Yrotation Xrotation Zrotation
   JOINT Chest3
   {
    OFFSET 0.000000 9.561800 0.000000
    CHANNELS 3 Yrotation Xrotation Zrotation
    JOINT Chest4
    {
     OFFSET 0.000000 9.552100 0.000000
     CHANNELS 3 Yrotation Xrotation Zrotation
     JOINT Neck
     {
      OFFSET 0.000000 14.453000 0.000000
      CHANNELS 3 Yrotation Xrotation Zrotation
      JOINT Head
      {
       OFFSET 0.000000 8.936500 -0.011300
       CHANNELS 3 Yrotation Xrotation Zrotation
       End Site
       {
        OFFSET 0.000000 17.073600 -0.006000
       }
      }
     }
     JOINT RightCollar
     {
      OFFSET -2.921100 9.558500 0.000000
      CHANNELS 3 Yrotation Xrotation Zrotation
      JOINT RightShoulder
      {
       OFFSET -13.519700 0.000000 0.000000
       CHANNELS 3 Yrotation Xrotation Zrotation
       JOINT RightElbow
       {
        OFFSET 0.000000 -29.696600 0.000000
        CHANNELS 3 Yrotation Xrotation Zrotation
        JOINT RightWrist
        {
         OFFSET 0.000000 -24.004700 0.000000
         CHANNELS 3 Yrotation Xrotation Zrotation
         End Site
         {
          OFFSET 0.000000 -17.728500 0.000000
         }
        }
       }
      }
     }
     JOINT LeftCollar
     {
      OFFSET 2.921100 9.558500 0.000000
      CHANNELS 3 Yrotation Xrotation Zrotation
      JOINT LeftShoulder
      {
       OFFSET 13.519700 0.000000 0.000000
       CHANNELS 3 Yrotation Xrotation Zrotation
       JOINT LeftElbow
       {
        OFFSET 0.000000 -29.696600 0.000000
        CHANNELS 3 Yrotation Xrotation Zrotation
        JOINT LeftWrist
        {
         OFFSET 0.000000 -24.004700 0.000000
         CHANNELS 3 Yrotation Xrotation Zrotation
         End Site
         {
          OFFSET 0.000000 -17.728500 0.000000
         }
        }
       }
      }
     }
    }
   }
  }
 }
 JOINT RightHip
 {
  OFFSET -7.771700 -0.012900 -0.001300
  CHANNELS 3 Yrotation Xrotation Zrotation
  JOINT RightKnee
  {
   OFFSET 0.000000 -40.869800 0.001200
   CHANNELS 3 Yrotation Xrotation Zrotation
   JOINT RightAnkle
   {
    OFFSET 0.000000 -39.717900 0.002100
    CHANNELS 3 Yrotation Xrotation Zrotation
    JOINT RightToe
    {
     OFFSET 0.000000 -4.965400 11.033500
     CHANNELS 3 Yrotation Xrotation Zrotation
     End Site
     {
      OFFSET 0.000000 -1.423100 5.872300
     }
    }
   }
  }
 }
 JOINT LeftHip
 {
  OFFSET 7.771700 -0.012900 -0.001300
  CHANNELS 3 Yrotation Xrotation Zrotation
  JOINT LeftKnee
  {
   OFFSET 0.000000 -40.869800 0.001200
   CHANNELS 3 Yrotation Xrotation Zrotation
   JOINT LeftAnkle
   {
    OFFSET 0.000000 -39.717900 0.002100
    CHANNELS 3 Yrotation Xrotation Zrotation
    JOINT LeftToe
    {
     OFFSET 0.000000 -4.965400 11.033500
     CHANNELS 3 Yrotation Xrotation Zrotation
     End Site
     {
      OFFSET 0.000000 -1.423100 5.872300
     }
    }
   }
  }
 }
}
MOTION
Frames: 5
Frame Time: 0.008333
-6.064459 54.534889 28.485399 177.437216 -30.862871 -10.540689 0.782149 13.566674 5.113809 0.500919 7.954921 2.084322 0.640364 9.987074 2.624755 0.488121 7.960455 2.077681 3.947222 20.364959 -0.360576 4.302240 -4.015943 -1.282531 0.606318 -0.672231 -4.022554 -14.465354 -5.106455 5.467256 26.694815 -85.491112 -9.816800 12.202371 -1.421784 -5.092397 -9.947115 1.184433 -2.359469 6.306959 -1.825686 -0.686395 -95.018569 -54.592013 109.000436 12.855634 -24.352941 1.069161 -17.923357 -34.099561 7.592996 34.546888 87.380604 31.301171 0.662803 -18.437169 0.107449 -0.042650 0.504004 0.015545 -15.311113 -46.985320 17.960530 171.186459 79.344364 166.971718 -1.665440 -16.186611 0.710260 -0.589089 -2.225997 -0.255981
-6.070412 54.564683 28.487705 177.443383 -30.846927 -10.545734 0.772684 13.587914 5.128828 0.487499 7.961006 2.076975 0.639862 9.968655 2.616933 0.482077 7.963013 2.074760 3.964257 20.340136 -0.367103 4.310716 -4.032132 -1.286110 0.646058 -0.705413 -4.061271 -14.366606 -5.165245 5.335520 31.609014 -85.428242 -14.720850 12.170384 -1.583667 -5.824530 -9.950489 1.161512 -2.360128 6.311389 -1.830189 -0.662436 -95.125634 -54.566632 109.010434 12.901624 -24.440208 1.028229 -17.941724 -34.122992 7.604451 34.560037 87.401656 31.308373 0.651666 -18.455602 0.111768 -0.044025 0.506962 0.012639 -15.340112 -47.009704 17.957563 171.056398 79.338157 166.840594 -1.647583 -16.138723 0.710187 -0.606232 -2.262102 -0.268028
-6.078159 54.592114 28.492554 177.469038 -30.810302 -10.551062 0.733076 13.589876 5.131745 0.476744 7.965105 2.072604 0.642992 9.953396 2.607483 0.476700 7.965152 2.072543 3.969430 20.304921 -0.369407 4.338661 -4.094633 -1.304435 0.686741 -0.737003 -4.101642 -14.237015 -5.207257 5.209624 36.614259 -85.380699 -19.747083 12.161864 -1.712293 -6.555990 -9.952651 1.137613 -2.362730 6.296075 -1.856506 -0.604719 -95.189788 -54.558167 109.001296 12.919802 -24.559790 1.018393 -17.978020 -34.166095 7.610314 34.396976 87.427822 31.134147 0.663229 -18.475904 0.118102 -0.048230 0.507093 0.005667 -15.383109 -47.055108 17.947968 170.881091 79.337150 166.666613 -1.648697 -16.092576 0.709934 -0.611620 -2.287783 -0.276942
-6.081720 54.622006 28.493704 177.474150 -30.808129 -10.569596 0.734606 13.638150 5.184034 0.463578 7.944915 2.051698 0.626804 9.959526 2.601848 0.434791 8.008000 2.085814 4.007594 20.189550 -0.407422 4.380100 -4.213461 -1.345818 0.828698 -0.846355 -4.250738 -14.154124 -5.195344 5.168129 41.065649 -85.355186 -24.246365 12.179760 -1.800638 -7.228166 -9.934744 1.043102 -2.368719 6.312306 -1.885032 -0.566964 -95.233716 -54.516477 108.977494 12.912508 -24.705103 1.061645 -18.008427 -34.165456 7.638045 34.113292 87.446702 30.833347 0.679410 -18.491295 0.118986 -0.048440 0.513311 0.007778 -15.422492 -47.062850 17.967333 170.751262 79.332926 166.530292 -1.619928 -16.026404 0.714672 -0.636040 -2.339890 -0.291263
-6.087650 54.649636 28.496100 177.482633 -30.794052 -10.573911 0.726011 13.650549 5.201718 0.443360 7.977509 2.066164 0.619614 9.939473 2.579846 0.427111 8.005845 2.088831 4.021564 20.130832 -0.432983 4.404584 -4.306646 -1.381454 0.914420 -0.905995 -4.351234 -14.062400 -5.200783 5.115613 44.582158 -85.365966 -27.826012 12.201166 -1.860565 -7.809039 -9.910252 0.997742 -2.369168 6.285213 -1.923305 -0.538481 -95.266699 -54.425049 108.958240 12.900638 -24.861371 1.159394 -18.022528 -34.184127 7.648057 33.896410 87.468902 30.604752 0.685129 -18.510849 0.125791 -0.059262 0.508883 0.000442 -15.444385 -47.079652 17.969903 170.676436 79.334928 166.449108 -1.618525 -15.999466 0.718446 -0.641255 -2.355930 -0.294281
